<svg xmlns="http://www.w3.org/2000/svg" width="600" height="48" fill="none" xmlns:v="https://vecta.io/nano"><path fill-rule="evenodd" d="M576.009 30.059h-5.873c-.501 0-.716.154-.859.693l-.757 2.356-.001.001-1.033 3.345c-.358 1.618-.573 3.313-.286 5.009.286 1.541 1.146 2.774 2.435 3.468l1.719.848.072.051c.201.139.421.291.357.566-.071.308-.286.385-.573.385l-2.089-.043-3.139-.111c-.716-.077-1.504-.077-2.22 0l-3.352.111-2.234.043c-.348 0-.628 0-.709-.424-.157.024-.313.024-.469.024l-2.979-.044-4.468-.114c-.931-.079-1.861-.158-2.792.079h-.466l-3.161.04-3.044.039c-.31 0-.698 0-1.008-.079-.311-.158-.543-.315-.543-.71s.232-.631.543-.71l.93-.236.66-.079.659-.079c1.784-.315 2.482-1.419 2.637-3.075v-.552V6.8v-.552c-.232-2.287-1.163-2.917-2.87-3.233-.465-.079-1.008-.158-1.473-.158-.233 0-.388-.079-.621-.237s-.388-.394-.31-.71.232-.552.543-.631c.232-.079.543-.079.853-.079l8.3.079h8.455.853c.31.079.543.237.62.631 0 .394-.155.71-.543.788l-1.396.237c-.388 0-.775.079-1.163.237-1.396.394-2.095 1.34-2.172 2.838v.631 34.219.867c.155 1.262.698 2.208 1.939 2.602l.183.047.003.001c.545.14 1.04.268 1.598.268.31 0 .698.079 1.008.236.254.064.456.234.479.51a.94.94 0 0 0 .21-.076c1.791-.462 3.152-1.618 4.226-3.082 1.504-2.003 2.578-4.238 3.437-6.55l3.101-8.902.001-.003 1.625-4.811.778-2.257.002-.007 2.801-8.293c.143-.385.287-.771.358-1.156.143-.848-.071-1.541-.788-2.081-.531-.381-.8-.574-.805-.774s.263-.416.805-.844c2.006-1.541 3.653-3.468 5.014-5.625l.128-.262V.669h0c.162-.35.334-.723.731-.662.351.054.456.372.561.69.046.136.091.273.155.388l1.994 5.479.011.03.011.031 1.995 5.479 5.443 14.949 5.084 14.101c.287.771.645 1.618 1.075 2.312.716 1.079 1.647 1.849 2.864 2.158.072.038.161.058.251.077s.179.038.251.077c.286.077.429.231.429.616s-.286.462-.573.462h-2.076c-.171 0-.342-.018-.521-.036l-.625-.041c-.788 0-1.558-.019-2.328-.038l-2.327-.038-7.734.154h-.001-.716c-.358 0-.573-.154-.573-.539-.072-.385.215-.539.501-.617.192-.034.384-.084.582-.136l.779-.173.141-.037.003-.001c.257-.066.547-.141.787-.27.716-.385 1.146-1.002 1.217-1.927.072-1.079-.143-2.08-.501-3.082l-.755-2.074-2.611-7.327c-.143-.462-.358-.539-.788-.539l-5.872-.077zm-3.672-6.836l-.013.039-1.873 5.574h11.82l-6.155-16.821-3.779 11.208zM289.828 37.275v-8.594-.788c0-.394.233-.552.543-.631.31 0 .543.158.543.473l.178.856.21.958c.62 3.39 1.396 6.781 3.025 9.856 1.008 1.971 2.327 3.706 4.111 5.046 1.629 1.183 3.413 1.735 5.352 1.892 2.094.158 4.111-.079 5.973-.867 3.413-1.34 5.119-4.337 4.964-8.042-.155-3.39-2.017-5.598-4.809-7.096-2.062-1.149-4.294-1.893-6.503-2.628h0-.001l-1.098-.368c-2.016-.71-4.033-1.419-5.972-2.444-1.629-.867-3.103-1.892-4.189-3.39-1.319-1.735-2.017-3.706-2.172-5.835-.233-3.627.621-6.86 2.948-9.698 2.715-3.312 6.283-4.967 10.471-5.046 3.025-.079 5.895.631 8.61 1.813.621.315 1.241.552 1.94.71 1.163.237 1.706 0 2.094-1.104.155-.394.31-.71.776-.71.543 0 .62.394.698.867.024.247.056.503.088.761l.001.007.001.003c.07.561.142 1.136.142 1.674l.3 3.632h0 0 0 0 0 0 0 0 0l.321 3.855.465 4.652v.552c-.077.236-.155.394-.388.473-.232 0-.465-.079-.542-.315-.126-.191-.2-.433-.265-.644l-.046-.144c-.698-2.444-1.629-4.731-2.715-7.017-.93-1.813-2.016-3.469-3.49-4.81-1.396-1.34-3.103-2.129-5.042-2.523-1.862-.315-3.723-.394-5.585.158-1.706.473-3.103 1.419-3.956 2.996-1.163 2.287-1.396 5.362.621 7.49 1.008 1.104 2.404 1.813 3.723 2.365 1.604.671 3.265 1.197 4.914 1.718l3.153 1.041c2.017.71 3.956 1.498 5.74 2.602 4.033 2.444 5.973 6.071 6.05 10.881.078 3.863-1.086 7.333-3.568 10.25-2.404 2.838-5.43 4.494-8.998 5.283-3.801.788-7.524.394-11.092-1.261l-.164-.077-.245-.116-.002-.001c-.856-.406-1.677-.795-2.614-1.067-1.396-.473-2.715-.079-3.336 1.262 0 .079-.077.158-.155.236-.232.315-.465.631-.853.552-.373-.126-.347-.405-.322-.673.006-.066.012-.132.012-.194.155-2.76.155-5.835.155-8.831zm200.392-7.374c0 .315 0 .631-.155 1.104a7.2 7.2 0 0 1-.29-.315c-.145-.163-.261-.295-.408-.394l-2.926-3.913-.002-.004-.02-.026-2.947-3.942-15.126-20.342c-.388-.473-.698-.71-1.319-.631h-1.939c-1.241-.039-2.463-.039-3.684-.039s-2.444 0-3.685-.039c-.824-.052-1.614-.035-2.416-.018l-1.229.018c-.388 0-.543.237-.621.552-.078.394.078.71.465.788a3.89 3.89 0 0 0 .505.079c.174.02.349.039.504.079 1.163.158 2.249.631 3.258 1.419.775.631 1.396 1.419 2.016 2.208.311.473.466.867.466 1.419v28.779c0 1.419-.155 2.838-.698 4.179-.931 2.444-2.56 3.942-5.197 4.1a2.75 2.75 0 0 0-.854.158c-.387.079-.465.394-.465.71s.233.473.543.552.543.079.776.079c.846-.072 1.708-.062 2.571-.052 1.037.012 2.076.023 3.091-.105.875-.099 1.781-.043 2.679.013.535.033 1.066.066 1.587.066.388 0 .757.02 1.125.039a20.65 20.65 0 0 0 1.125.039h1.861c.388 0 .543-.315.621-.631.078-.394-.155-.552-.388-.71-.31-.237-.698-.237-1.008-.237-2.095-.158-3.646-1.261-4.654-3.233-.776-1.419-1.086-2.996-1.086-4.573V10.032a1.08 1.08 0 0 0-.02-.18h0c-.029-.172-.056-.333.175-.451l.427.552.426.552 6.283 8.555.002.003 6.281 8.553 7.098 9.659 7.097 9.659c.078.079.155.177.233.276s.155.197.232.276c.543.552.931.394 1.086-.315.078-.473.078-.867.078-1.262V12.713c0-1.104 0-2.208.155-3.312.078-1.104.388-2.208.853-3.233.797-1.688 1.992-2.855 3.683-3.255l.145.014h0a11.28 11.28 0 0 1 .523.06c2.017.315 2.948 1.262 3.025 3.312v.473 34.14c0 2.365-.93 3.39-3.18 3.706-.31.079-.543.079-.776.079-.31 0-.62.079-.853.158-.388.079-.465.394-.465.788s.233.552.543.631.62.079.931.079c.992-.032 1.972-.038 2.949-.044 1.468-.009 2.93-.019 4.42-.113 1.5-.127 3.051-.049 4.571.027h.001l1.09.052c1.086.039 2.153.039 3.219.039l3.219.04c2.405.079 4.887.079 7.369-.394 5.74-1.183 10.006-4.415 12.721-9.777 1.397-2.76 2.095-5.756 2.405-8.831.31-3.548.155-7.017-.776-10.408-1.163-4.1-3.18-7.49-6.36-10.25-4.267-3.627-9.231-5.283-14.661-5.44-3.18-.079-6.438-.079-9.463.079-1.047-.039-2.056-.039-3.035-.039s-1.929 0-2.86-.039c-.867-.04-1.754-.039-2.651-.029-.088-.016-.189-.023-.304-.023h-4.266c-2.017.079-3.956.079-5.895 0h-4.267c-.31 0-.543.158-.62.552s.077.631.465.788a.58.58 0 0 0 .311.079c.116 0 .213.02.31.039s.194.039.31.039c2.87.237 4.422 2.05 5.197 4.652.388 1.34.543 2.838.543 4.258v18.292zm-267.392 3.589l1.704-4.489.002-.005 6.671-17.583 3.18-8.437c.31-.867.311-.867 1.164-.867l5.817-.039 5.818-.039h.776c.387 0 .543.237.62.552.078.394-.077.71-.465.867-.311.105-.621.14-.931.175-.155.018-.31.035-.465.061a3.89 3.89 0 0 1-.505.079c-.174.02-.349.039-.504.079-1.629.394-2.327 1.34-2.482 2.996v.631 33.983.631c.078 1.577.853 2.838 2.637 3.075.311.039.64.099.97.158s.659.118.969.158c.388.079.699.236.699.71s-.233.71-.776.788c-.931.079-1.862.079-2.792.079h-.001c-.31 0-.601-.02-.892-.039s-.581-.039-.892-.039c-.659 0-1.318-.02-1.978-.04l-1.978-.039c-2.873 0-5.674.075-8.544.152h0l-.221.006c-.31 0-.62 0-.931-.079-.465-.079-.775-.394-.775-.788s.31-.552.62-.71c.388-.158.698-.158 1.086-.158.155 0 .388 0 .543-.079 1.862-.315 3.025-1.183 3.025-3.548V8.497 7.393c-.304.371-.417.694-.527 1.006l-.093.255-6.321 16.831-6.323 16.836-.294.804-.002.006-.001.003v.001h0-.001c-.369 1.014-.748 2.056-1.176 3.049-.009.018-.017.037-.026.055l-.03.064c-.125.271-.235.511-.642.511s-.517-.24-.641-.511l-.001-.001h0l-.056-.119-1.783-4.57h0 0 0 0 0 0 0 0 0-.001 0 0 0l-1.784-4.573-1.894-4.899-6.793-17.414-1.862-4.731c-.009-.027-.018-.056-.027-.086l-.001-.002v-.001c-.072-.238-.173-.569-.515-.777v1.025 26.177c0 1.813.233 3.548.853 5.283.776 2.05 2.327 3.312 4.422 3.706.155.039.29.059.426.079s.272.039.427.079c.388.079.543.315.543.71s-.155.552-.466.71c-.558.189-1.165.177-1.782.164l-.467-.006-1.371-.067h0c-1.43-.075-2.883-.15-4.292-.091-.814.039-1.629.059-2.443.079l-2.443.079c-.311 0-.698 0-1.009-.079-.388-.079-.543-.394-.62-.788 0-.394.232-.631.62-.71a2.25 2.25 0 0 1 .349-.079 2.2 2.2 0 0 0 .349-.079c2.483-.473 3.956-1.971 4.732-4.415.465-1.656.621-3.311.621-5.046V7.472c0-.552-.156-.946-.388-1.419-1.009-1.656-2.482-2.365-4.344-2.602-.154-.031-.308-.038-.457-.044-.226-.01-.442-.019-.629-.114-.31-.158-.621-.394-.465-.788.077-.394.31-.552.775-.552h3.646c1.551.039 3.083.039 4.615.039l4.616.039.38-.005c.311-.006.467-.01.576.061s.17.223.292.526h0v.001l.148.362 6.515 16.558 4.887 12.537c.543.473.698.788 1.009 1.419zM72.911 2.031h8.377.853c.388.079.543.315.621.631a.65.65 0 0 1-.388.788c-.22.134-.49.167-.753.199-.201.024-.398.048-.566.117-.155.039-.33.059-.504.079s-.349.039-.504.079c-1.474.315-2.327 1.104-2.56 3.075v.552 34.14c0 1.025.155 2.05.931 2.839.621.631 1.474.788 2.327.867.233.039.465.059.698.079s.465.04.698.079c.388.158.698.315.698.788 0 .394-.31.71-.776.789-.931.079-1.862.079-2.792.079a11.14 11.14 0 0 1-.835-.042h0 0a9.76 9.76 0 0 0-.716-.037c-.621 0-1.261-.02-1.9-.039l-1.9-.039c-1.757-.06-3.559.016-5.338.09h0l-1.72.067h-2.482c-.233 0-.465 0-.62-.079-.31-.079-.543-.315-.543-.71s.155-.631.465-.71l.931-.237a11.31 11.31 0 0 1 .523-.059h.001 0 0 0c.362-.036.713-.07 1.028-.177 1.474-.394 2.249-1.34 2.327-2.917v-.394-16.636h0c0-.554 0-.81-.128-.928-.11-.101-.313-.1-.692-.098h-.001l-.188.001h-14.04-.543c-.31 0-.465.158-.465.473v.788 16.4c0 2.365 1.086 3.311 3.103 3.548.233.04.485.059.737.079s.504.039.737.079c.388.158.698.315.698.788 0 .394-.233.71-.776.788-.931.079-1.862.079-2.792.079a18.38 18.38 0 0 1-1.067-.041c-.329-.019-.648-.038-.949-.038-.853.04-1.726-.02-2.599-.079s-1.745-.118-2.598-.079c-1.443.095-2.886.104-4.328.113h0l-2.885.044c-.31 0-.62 0-.931-.079-.388-.079-.698-.237-.698-.71s.31-.631.698-.788c.414-.105.827-.14 1.241-.175l.62-.061c1.939-.237 2.715-1.577 2.793-3.39v-.552V7.866c0-.394 0-.788-.078-1.183-.31-1.892-1.241-2.523-2.792-2.76-.465-.079-.931-.158-1.396-.158-.155 0-.388-.079-.543-.158-.31-.158-.543-.394-.543-.788.078-.394.31-.631.698-.631h.621l3.355.039 3.471.04 10.161-.079h.776c.388.079.698.315.698.788 0 .394-.233.631-.62.71l-.776.118h0l-.776.118c-.698.079-1.396.237-1.939.631-.776.631-1.163 1.498-1.163 2.523v9.067 5.835c0 .396 0 .594.099.692s.291.097.677.097h14.505c.386 0 .58 0 .677-.097s.099-.295.099-.692V7.156c0-1.971-1.086-3.075-3.103-3.233a8.4 8.4 0 0 0-.698-.079c-.233-.02-.465-.039-.698-.079-.62-.079-.853-.394-.776-.867s.233-.631.853-.631h5.74c.776-.237 1.862-.237 2.948-.237zm208.325 0h-14.893l-14.815.079h-.853c-.388.079-.543.315-.621.631a.65.65 0 0 0 .388.788c.116.039.213.059.31.079s.194.039.311.079a9.44 9.44 0 0 0 .875.14c.438.056.881.113 1.296.254 1.086.394 1.707 1.025 1.94 2.129.077.473.155 1.025.155 1.498v33.983.552c-.078 1.025-.311 1.971-1.164 2.602-.62.473-1.318.631-2.094.71-.16.027-.33.045-.502.063-.328.035-.667.07-.972.174-.388.079-.62.315-.62.71s.31.631.62.71.698.079 1.008.079l3.724-.079 3.723-.079c2.755-.078 5.434-.002 8.187.076l.113.003 8.416.04 8.416.039c.344 0 .519 0 .626-.085s.149-.265.227-.624h0l.395-2.037.001-.005 2.319-12.308c.078-.473.155-1.025.155-1.498 0-.394-.155-.71-.543-.788-.31 0-.62.158-.698.473-.038.197-.097.374-.155.551h0v.001a4.64 4.64 0 0 0-.155.552c-.621 2.05-1.474 4.021-2.56 5.835-2.482 4.021-5.817 6.86-10.471 7.885-1.785.394-3.646.552-5.508.315-2.094-.315-3.258-1.577-3.335-3.706v-.788-15.138c0-.806 0-1.2.197-1.393.188-.184.556-.184 1.277-.184 3.025 0 5.274 1.419 6.593 4.179.776 1.498 1.008 3.075 1.086 4.731.026.131.043.263.06.394.035.263.069.526.172.789.156.394.466.473.854.394s.465-.315.465-.631v-.631-19.396-.552c0-.394-.077-.71-.543-.788s-.698.079-.853.631c-.006.026-.013.051-.019.076l-.011.043-.009.033v.003l-.001.001c-.062.243-.115.45-.115.711 0 .867-.155 1.735-.388 2.523-.465 1.498-1.164 2.839-2.405 3.942-1.551 1.419-3.49 1.971-5.507 1.892-.424 0-.638 0-.745-.107s-.108-.325-.108-.761v-7.963-9.54c0-.357 0-.534.088-.622s.263-.087.61-.087c1.939 0 3.801 0 5.74.237 4.033.473 7.369 2.208 9.773 5.519 1.397 2.05 2.483 4.179 3.491 6.465.078.315.233.631.388.867s.388.315.62.237c.311-.158.466-.394.388-.71 0-.315-.077-.631-.155-.867l-1.512-6.189h0l-.01-.039v-.001L282.4 2.977c-.118-.481-.176-.717-.327-.834-.146-.112-.379-.112-.837-.112zm-181.176 0h14.505.621c.465-.079.698.158.853.631l2.63 10.737.55 2.194c.078.237.078.473.078.71s-.078.473-.31.473c-.048 0-.095.003-.141.006-.183.012-.356.024-.48-.164-.155-.236-.31-.552-.388-.867-.853-2.05-1.861-3.942-3.103-5.835-2.482-3.785-6.05-5.756-10.394-6.229-1.489-.189-2.978-.177-4.468-.164l-1.117.006c-.386 0-.58 0-.677.097s-.099.295-.099.692V21.9c0 .356 0 .534.088.632s.262.117.61.157c1.551.079 3.103-.158 4.499-.946 2.249-1.261 3.413-3.311 3.878-5.835.104-.473.138-.946.173-1.419l.06-.71c.078-.631.31-.867.776-.867.387 0 .62.158.62.552.078.315.078.552.078.867v19.317.788c-.078.315-.233.552-.621.552s-.62-.079-.698-.473c-.155-.552-.155-1.025-.155-1.577-.155-1.971-.621-3.942-1.784-5.598-1.396-1.971-3.258-2.838-5.585-2.996h-1.241c-.335 0-.509 0-.6.087-.098.094-.098.291-.098.701v9.146 6.544a7.9 7.9 0 0 0 .233 1.892c.31 1.656 1.396 2.602 3.258 2.838 2.715.394 5.275-.079 7.835-1.104 3.956-1.577 6.748-4.573 8.765-8.358.853-1.656 1.551-3.39 2.017-5.204a2.28 2.28 0 0 0 .06-.237c.034-.158.069-.315.172-.473.155-.237.388-.473.698-.315.311.079.466.315.466.631a9.95 9.95 0 0 1-.233 2.129l-1.279 6.818-.001.003-1.28 6.819-.006.038c-.149.832-.162.907-1.08.83l-7.019-.039c-2.347 0-4.693 0-7.02-.039-1.282 0-2.554-.033-3.822-.067h0 0 0 0 0 0 0 0 0 0 0c-2.108-.055-4.208-.111-6.338-.012l-8.145.158c-.31 0-.698 0-1.008-.079s-.543-.315-.543-.71.155-.631.465-.71.621-.158 1.008-.237l1.629-.237c1.164-.236 1.862-1.025 2.094-2.208.155-.552.155-1.183.155-1.813V7.866a7.27 7.27 0 0 0-.233-1.813c-.233-1.183-.931-1.892-2.094-2.208-.349-.079-.679-.118-1.008-.158s-.659-.079-1.008-.158c-.155-.079-.388-.079-.543-.079-.388-.079-.62-.394-.543-.788s.233-.631.621-.71h.853l14.816.079zM23.829 4.949V3.845c.091 0 .155-.027.208-.049.038-.016.07-.029.102-.029 5.042 1.577 8.998 4.573 11.558 9.304.389.693.718 1.416 1.042 2.132h0 0 0l.587 1.258c.052.079.095.158.138.236h0c.086.158.172.315.328.473.233.158.388.236.62.158.233 0 .31-.237.31-.473 0-.315 0-.71-.078-1.025l-1.008-6.032-1.008-6.032a23.4 23.4 0 0 1-.194-1.025l-.194-1.025c-.155-.631-.465-.788-1.086-.473-.039.039-.097.079-.155.118h0c-.058.039-.116.079-.155.118-.543.473-1.163.631-1.939.631H5.833c-.776 0-1.396-.158-2.017-.631-.853-.631-1.241-.473-1.474.552 0 .039-.019.079-.039.118s-.039.079-.039.118L.248 14.41c-.026.263-.069.526-.112.788-.086.526-.172 1.051-.121 1.577.014.043.025.085.037.127.051.19.097.36.351.425.233.079.465 0 .621-.237s.31-.473.465-.788l1.164-2.602C4.98 8.97 8.703 5.816 13.59 4.081c.085-.022.175-.055.271-.09.256-.094.554-.204.892-.146v.867 36.111c0 .315 0 .71-.078 1.025-.31 2.129-1.396 3.233-3.491 3.548-.543.079-1.086.158-1.629.158-.543.079-.853.394-.853.867 0 .394.233.631.776.71h.776l9.541-.158c.776 0 1.571.02 2.366.039l2.366.039c.321 0 .62.021.91.041.271.019.534.038.796.038h2.948c.465 0 .698-.237.698-.71.078-.473-.233-.71-.621-.788h-.543c-.621 0-1.241-.079-1.862-.236-1.396-.315-2.327-1.025-2.715-2.444-.233-.788-.31-1.656-.31-2.444V4.949zm127.016-1.104c-.466 0-.776.079-1.164.237-5.507 1.892-9.385 5.598-11.712 11.038l-.699 1.656a2.38 2.38 0 0 1-.387.552c-.156.158-.388.237-.621.158s-.388-.315-.31-.631c.026-.184.043-.368.06-.552.035-.368.069-.736.173-1.104l2.171-12.852c0-.079.02-.177.039-.276s.039-.197.039-.276c.155-.631.621-.867 1.086-.473.931.867 2.017.867 3.103.867h25.985c.853 0 1.629-.158 2.327-.71.776-.552 1.163-.394 1.319.552l.543 3.075.543 3.075.62 3.706.621 3.706c.077.394.077.788.077 1.183 0 .315-.077.552-.388.631s-.543-.079-.698-.315c-.31-.526-.551-1.051-.793-1.577v-.001l-.37-.787c-2.482-5.519-6.594-9.067-12.256-10.881h-.31c-.186.189-.174.378-.162.568.004.047.007.095.007.142v35.402c0 .867.077 1.813.31 2.681.388 1.419 1.241 2.365 2.637 2.76.543.158 1.164.236 1.707.236h.62c.466.079.776.315.776.788s-.233.71-.776.788c-.623.053-1.281.035-1.928.017h0 0l-.942-.017c-.282 0-.564-.021-.835-.042-.251-.019-.492-.037-.716-.037-.931.039-1.842 0-2.754-.039s-1.823-.079-2.753-.039l-.222.006-8.776.152h-.776c-.543-.079-.776-.315-.698-.788 0-.473.233-.71.776-.788.62 0 1.241-.079 1.861-.158 1.784-.236 2.87-1.261 3.258-3.075a9.24 9.24 0 0 0 .233-2.05V4.791c.155-.315.155-.631.155-.946zm261.983-1.813h-14.582c-.543.079-1.086.079-1.862 0-1.396-.039-2.793-.039-4.189-.039s-2.792 0-4.188-.039c-1.141-.053-2.316-.035-3.48-.017l-1.717.017c-.699 0-1.086.237-1.086.71-.078.394.232.71.93.788.233.039.485.059.737.079s.504.039.737.079c.853.158 1.707.473 2.25 1.183s.62 1.577.62 2.444v34.456.473c-.077 1.656-.931 2.681-2.482 2.996-.305.103-.644.139-.972.174-.172.018-.342.036-.502.063-.388.079-.775.158-1.086.315-.232.158-.31.315-.31.552 0 .315.155.394.388.473l.154.04c.238.063.442.117.699.117 1.326 0 2.583.071 3.902.146l.209.012c1.024.047 2.048.009 3.072-.028l2.048-.05c.543 0 1.086.02 1.629.04l1.629.039c.93 0 1.784 0 2.637.079.931 0 1.784 0 2.715-.079.543-.079.775-.315.775-.788s-.31-.631-.698-.71c-.698-.079-1.396-.158-2.094-.315-1.319-.236-2.094-1.025-2.405-2.365-.077-.473-.077-.867-.077-1.34V26c0-.183-.026-.373-.052-.559-.063-.457-.123-.895.207-1.175.272-.222.698-.171 1.115-.121.177.021.352.042.514.042 2.715.158 4.809 1.34 6.128 3.785.775 1.498 1.163 3.154 1.241 4.889 0 .473.077.946.155 1.419 0 .394.233.552.62.552s.621-.079.699-.473c.077-.315.077-.552.077-.867V14.095c0-.236 0-.473-.077-.71-.078-.394-.233-.552-.621-.552-.388-.079-.62.158-.698.552 0 .237-.039.473-.078.71s-.077.473-.077.71c-.078 2.05-.776 3.863-2.172 5.362-1.629 1.813-3.723 2.523-6.128 2.444-.424 0-.638 0-.745-.107s-.108-.325-.108-.761v-6.308V4.239c0-.357 0-.534.088-.622s.263-.087.61-.087c1.939 0 3.878 0 5.817.237 4.034.473 7.447 2.287 9.852 5.677 1.473 2.05 2.559 4.337 3.568 6.623.31.631.543.788.931.71s.465-.394.31-1.104l-1.59-6.505-.003-.01-1.587-6.495c-.078-.473-.311-.71-.776-.631h-.621zm-223.82 39.502V24.581l.077-16.952c0-.473 0-1.025.078-1.498.233-1.262.931-1.971 2.172-2.287a5.98 5.98 0 0 1 .543-.079c.174-.02.349-.039.543-.079.543 0 1.008-.079 1.474-.237.387-.079.543-.394.465-.788s-.31-.552-.621-.631h-.31c-.672 0-1.344-.009-2.017-.018-1.344-.018-2.689-.035-4.033.018-1.862.079-3.801.079-5.74 0h-6.05c-.621 0-.931.237-.931.71 0 .394.31.71.853.788l1.784.237c1.707.315 2.56 1.262 2.715 2.996.077.473.077.867.077 1.262v33.115c0 .158-.019.315-.038.473a3.77 3.77 0 0 0-.039.473c-.233 2.602-1.396 2.996-3.025 3.312-.311.079-.543.079-.853.079s-.621.079-.931.158c-.311.158-.543.394-.543.788s.232.631.62.71c.311.079.698.079 1.009.079 1.379 0 2.769-.041 4.161-.083 2.444-.073 4.897-.146 7.319.004 1.706.079 3.413.079 5.119.079h0c.31 0 .621 0 .931-.079s.465-.315.465-.71-.155-.631-.465-.71c-.31-.158-.698-.237-1.008-.237l-.736-.118h-.001-.001l-.736-.118c-1.164-.315-1.862-.946-2.172-2.129-.155-.552-.155-1.025-.155-1.577zM442.176 1.359h8.532c.854 0 1.241.237 1.241.788 0 .473-.31.71-1.163.788l-.853.118-.854.118c-1.318.237-2.016 1.104-2.327 2.365-.077.473-.155 1.025-.155 1.498v33.51c0 .631 0 1.183.155 1.813.233 1.183 1.009 1.892 2.095 2.129.368.107.701.141 1.047.177l.504.059c.155.039.33.059.504.079a3.89 3.89 0 0 1 .505.079c.31.079.465.394.465.71s-.155.631-.543.71c-.31.079-.621.079-.931.079-1.784 0-3.568 0-5.43-.079-2.128-.135-4.283-.064-6.433.006-1.611.053-3.22.106-4.814.072-.31 0-.621 0-.931-.079-.388-.079-.698-.315-.62-.788 0-.394.232-.631.62-.71.399-.135.798-.167 1.197-.2.299-.024.598-.048.898-.116 1.551-.394 2.327-1.104 2.559-2.76.078-.315.078-.71.078-1.025V6.8v-.315c0-2.287-1.009-3.39-3.336-3.627-.232-.039-.446-.059-.659-.079s-.427-.039-.659-.079c-.543-.158-.698-.394-.698-.867s.232-.631.853-.631h5.895c1.164.158 2.172.158 3.258.158zm66.901 34.902c0 .946 0 1.813.077 2.76.233 2.76 1.474 4.573 4.111 5.361 2.095.631 4.267.552 6.438-.079 3.103-.946 5.12-3.075 6.594-5.835 1.629-3.075 2.327-6.465 2.56-9.935s.232-6.938-.311-10.329c-.465-3.154-1.318-6.229-3.025-8.988-1.939-3.154-4.576-5.283-8.145-5.992-1.76-.38-3.558-.349-5.342-.318-.809.014-1.615.028-2.414.003-.233 0-.388.158-.388.394v.788 17.346c-.155 4.81-.155 9.777-.155 14.823zM371.001 4.633c-3.801-2.444-7.912-3.627-12.411-3.548-1.086 0-2.095 0-3.103.079-5.12.631-9.541 2.76-13.187 6.544-4.111 4.258-6.205 9.383-6.593 15.217-.233 3.627.31 7.096 1.629 10.487 2.017 4.967 5.197 8.91 9.851 11.59 4.344 2.523 9.076 3.39 14.04 2.838 5.585-.552 10.394-2.917 14.195-7.175 3.568-3.863 5.507-8.515 5.973-13.798.465-4.889-.388-9.462-2.715-13.798-1.862-3.469-4.422-6.308-7.679-8.437zm-21.099 37.058c-1.706-2.523-2.637-5.362-3.258-8.358-.62-2.917-.775-5.835-.853-9.461 0-3.312.31-7.175 1.474-10.96.775-2.681 1.939-5.125 3.801-7.096s4.188-3.154 6.981-3.233a9.3 9.3 0 0 1 6.515 1.971c1.552 1.183 2.715 2.76 3.646 4.494 1.396 2.681 2.094 5.519 2.56 8.436.233 1.734.31 3.469.388 5.203v.001c.232 3.706-.078 7.333-.776 10.881-.62 3.154-1.706 6.15-3.723 8.752-1.784 2.287-4.034 3.706-6.981 4.021-4.189.473-7.369-1.262-9.774-4.652z" fill="#1a1a1a"/></svg>